HIERARCHY
ROOT Hips
{
 OFFSET 0.000000 0.000000 0.000000
 CHANNELS 6 Xposition Yposition Zposition Yrotation Xrotation Zrotation
 JOINT Chest
 {
  OFFSET 0.000000 10.354800 0.006500
  CHANNELS 3 Yrotation Xrotation Zrotation
  JOINT Chest2
  {
   OFFSET 0.000000 10.435800 -0.013200
   CHANNELS 3 Yrotation Xrotation Zrotation
   JOINT Chest3
   {
    OFFSET 0.000000 10.393700 0.000000
    CHANNELS 3 Yrotation Xrotation Zrotation
    JOINT Chest4
    {
     OFFSET 0.000000 10.383100 0.000000
     CHANNELS 3 Yrotation Xrotation Zrotation
     JOINT Neck
     {
      OFFSET 0.000000 15.694000 0.000000
      CHANNELS 3 Yrotation Xrotation Zrotation
      JOINT Head
      {
       OFFSET 0.000000 9.711000 -0.028000
       CHANNELS 3 Yrotation Xrotation Zrotation
       End Site
       {
        OFFSET 0.000000 18.578700 -0.014800
       }
      }
     }
     JOINT RightCollar
     {
      OFFSET -3.157200 10.367500 0.000000
      CHANNELS 3 Yrotation Xrotation Zrotation
      JOINT RightShoulder
      {
       OFFSET -14.482500 0.000000 0.000000
       CHANNELS 3 Yrotation Xrotation Zrotation
       JOINT RightElbow
       {
        OFFSET 0.000000 -31.707800 0.000000
        CHANNELS 3 Yrotation Xrotation Zrotation
        JOINT RightWrist
        {
         OFFSET 0.000000 -25.659300 0.000000
         CHANNELS 3 Yrotation Xrotation Zrotation
         End Site
         {
          OFFSET 0.000000 -18.994300 0.000000
         }
        }
       }
      }
     }
     JOINT LeftCollar
     {
      OFFSET 3.157200 10.367500 0.000000
      CHANNELS 3 Yrotation Xrotation Zrotation
      JOINT LeftShoulder
      {
       OFFSET 14.482500 0.000000 0.000000
       CHANNELS 3 Yrotation Xrotation Zrotation
       JOINT LeftElbow
       {
        OFFSET 0.000000 -31.707800 0.000000
        CHANNELS 3 Yrotation Xrotation Zrotation
        JOINT LeftWrist
        {
         OFFSET 0.000000 -25.659300 0.000000
         CHANNELS 3 Yrotation Xrotation Zrotation
         End Site
         {
          OFFSET 0.000000 -18.994300 0.000000
         }
        }
       }
      }
     }
    }
   }
  }
 }
 JOINT RightHip
 {
  OFFSET -8.365600 -0.032100 -0.003200
  CHANNELS 3 Yrotation Xrotation Zrotation
  JOINT RightKnee
  {
   OFFSET 0.000000 -43.980000 0.003100
   CHANNELS 3 Yrotation Xrotation Zrotation
   JOINT RightAnkle
   {
    OFFSET 0.000000 -42.882800 0.005200
    CHANNELS 3 Yrotation Xrotation Zrotation
    JOINT RightToe
    {
     OFFSET 0.000000 -4.915500 10.826300
     CHANNELS 3 Yrotation Xrotation Zrotation
     End Site
     {
      OFFSET 0.000000 -1.517500 6.175900
     }
    }
   }
  }
 }
 JOINT LeftHip
 {
  OFFSET 8.365600 -0.032100 -0.003200
  CHANNELS 3 Yrotation Xrotation Zrotation
  JOINT LeftKnee
  {
   OFFSET 0.000000 -43.980000 0.003100
   CHANNELS 3 Yrotation Xrotation Zrotation
   JOINT LeftAnkle
   {
    OFFSET 0.000000 -42.882800 0.005200
    CHANNELS 3 Yrotation Xrotation Zrotation
    JOINT LeftToe
    {
     OFFSET 0.000000 -4.915500 10.826300
     CHANNELS 3 Yrotation Xrotation Zrotation
     End Site
     {
      OFFSET 0.000000 -1.517500 6.175900
     }
    }
   }
  }
 }
}
MOTION
Frames: 11
Frame Time: 0.008333
0.000000 91.618600 0.000000 0.000000 -5.767877 0.000000 0.000000 11.653817 0.000000 0.000000 -5.885947 0.000000 0.000000 -0.000000 0.000000 0.000000 -0.000000 0.000000 0.000000 12.528835 0.000000 0.000000 0.711642 0.000000 0.000000 -0.000000 0.000000 0.000000 0.000000 -90.000000 0.000000 -2.309062 0.000000 0.000000 2.309062 0.000000 0.000000 -0.000000 0.000000 0.000000 -0.000000 90.000000 0.000000 -2.309062 0.000000 0.000000 2.309062 0.000000 0.000000 8.520406 0.000000 0.000000 1.905762 0.000000 -0.000000 -4.658285 0.000000 0.000000 -0.000000 0.000000 0.000000 8.520406 0.000000 0.000000 1.905762 0.000000 -0.000000 -4.658285 0.000000 0.000000 -0.000000 0.000000
100.944883 126.677220 130.531747 171.316636 -22.933381 -4.029626 0.910919 13.455526 2.317775 0.066626 1.109657 0.166947 0.081481 1.895160 0.326866 0.825691 12.132515 2.031522 -0.602359 19.571396 -4.375523 0.357211 -4.922473 -4.542904 4.753298 6.999264 -4.414912 -16.060792 -23.116897 -11.911291 178.495114 -46.497410 -170.621190 -12.022893 -28.190062 -30.439664 -0.882039 9.147924 0.361207 29.988428 -16.561885 -3.699541 -179.292000 -37.382697 171.055573 11.354093 -16.456340 12.587969 6.988685 -55.858739 -8.542715 -131.892954 71.366360 -124.944775 1.528333 -4.165478 -15.154582 0.003613 -0.003786 0.001640 -19.281936 -60.089111 4.250575 60.727956 83.570732 55.138196 -2.400285 -23.150226 -0.142070 0.002382 0.009509 0.001082
100.943835 126.677039 130.533338 171.334080 -22.940280 -4.050191 0.923668 13.453277 2.307246 0.055185 1.113853 0.181762 0.129204 1.880144 0.267189 0.821538 12.141796 2.056817 -0.567228 19.570018 -4.343531 0.371823 -4.913702 -4.505345 4.844345 6.938620 -4.412838 -15.685404 -23.600353 -12.346251 176.182458 -46.502092 -169.574293 -11.445302 -30.114070 -31.511124 -0.993159 9.088674 0.323763 29.719455 -17.414477 -3.462514 -177.761429 -37.176049 170.736397 11.016166 -16.996636 12.612000 6.969482 -55.845950 -8.517761 -131.841858 71.361740 -124.899591 1.528561 -4.168106 -15.141785 0.004075 -0.001708 0.001850 -19.283328 -60.087444 4.252826 60.739770 83.576279 55.151229 -2.403431 -23.158964 -0.139615 0.001030 0.007620 0.000468
100.945381 126.677684 130.534248 171.368423 -22.957518 -4.095075 0.931888 13.461211 2.311403 0.056564 1.113643 0.180444 0.136418 1.882812 0.259256 0.843535 12.143821 2.043747 -0.576402 19.566910 -4.288924 0.362222 -4.940829 -4.504371 4.938545 6.874861 -4.407156 -15.356088 -24.094394 -12.779062 174.007253 -46.582069 -168.589316 -10.897594 -31.956171 -32.537335 -1.129328 9.036458 0.281585 29.409636 -18.291332 -3.166990 -176.529369 -37.099602 170.552628 10.911001 -17.598623 12.420417 6.895150 -55.827531 -8.459096 -131.821470 71.362627 -124.881754 1.528641 -4.170776 -15.141937 0.002762 -0.005896 0.001254 -19.315982 -60.074627 4.278026 60.740538 83.592709 55.160388 -2.401800 -23.160134 -0.132206 0.000859 0.006212 0.000390
100.943855 126.677686 130.536246 171.383857 -22.971107 -4.119925 0.996431 13.458103 2.260757 0.021080 1.121072 0.223973 0.133792 1.885187 0.267414 0.879859 12.149451 2.016681 -0.604084 19.556395 -4.231145 0.252127 -4.983765 -4.495102 5.034530 6.798441 -4.399283 -15.072860 -24.592485 -13.223068 171.930406 -46.749953 -167.649332 -10.356741 -33.697363 -33.538941 -1.287464 8.993070 0.240998 29.091917 -19.191826 -2.795473 -175.440549 -37.135634 170.459094 10.971091 -18.216917 12.121174 6.857520 -55.813371 -8.424795 -131.784264 71.363344 -124.853016 1.534524 -4.166194 -15.132661 0.001593 -0.005578 0.000723 -19.332187 -60.064727 4.292689 60.715921 83.600831 55.138266 -2.405376 -23.171575 -0.134005 0.000364 0.005188 0.000165
100.941685 126.677876 130.538381 171.398054 -22.988502 -4.143003 1.030977 13.470583 2.242964 0.020384 1.117269 0.223869 0.106490 1.891182 0.301952 0.936406 12.161069 1.961114 -0.672443 19.523993 -4.206002 0.108350 -5.017175 -4.453541 5.135813 6.700132 -4.390373 -14.834332 -25.103476 -13.673079 169.878760 -47.020556 -166.681150 -9.761938 -35.304635 -34.599107 -1.463837 8.940362 0.201673 28.872757 -20.118221 -2.377398 -174.361650 -37.290861 170.336151 11.038530 -18.821610 11.935467 6.831270 -55.793413 -8.390425 -131.711873 71.366771 -124.800295 1.538704 -4.150500 -15.104800 -0.003353 -0.003603 -0.001522 -19.357845 -60.045925 4.310263 60.734977 83.595954 55.153047 -2.398431 -23.192075 -0.138443 0.001505 0.006937 0.000683
100.938136 126.677513 130.542527 171.408391 -22.998564 -4.159574 1.068816 13.477147 2.220271 0.067270 1.119344 0.174564 0.067855 1.892551 0.348162 0.965969 12.177327 1.944953 -0.853437 19.470483 -4.252299 0.016994 -5.051796 -4.378915 5.241148 6.574379 -4.385219 -14.643928 -25.659719 -14.080524 167.786297 -47.414169 -165.570076 -9.049207 -36.760661 -35.799855 -1.652497 8.862681 0.164561 28.808531 -21.070860 -1.978361 -173.146175 -37.572399 170.037029 10.948585 -19.399453 12.058474 6.805720 -55.784283 -8.365333 -131.682136 71.375673 -124.782314 1.537057 -4.140211 -15.094699 -0.003762 -0.001254 -0.001708 -19.370043 -60.040920 4.321206 60.728403 83.597968 55.146042 -2.402399 -23.209615 -0.149708 0.002033 0.004143 0.000923
100.935935 126.678626 130.544985 171.435776 -23.025541 -4.188592 1.090501 13.500090 2.206271 0.061349 1.123574 0.182839 0.128378 1.903460 0.284728 0.954217 12.187737 1.983301 -1.018630 19.421520 -4.276647 -0.109993 -5.099134 -4.336935 5.348328 6.418768 -4.391351 -14.491912 -26.283417 -14.396978 165.635965 -47.936440 -164.249353 -8.186942 -38.071060 -37.165431 -1.844961 8.755266 0.131186 28.768704 -22.033361 -1.609662 -171.605026 -37.961887 169.494192 10.633445 -19.928703 12.539251 6.754574 -55.757665 -8.327346 -131.663527 71.380432 -124.768822 1.535293 -4.131691 -15.090569 -0.002097 -0.002213 -0.000952 -19.397256 -60.022664 4.339290 60.728392 83.599328 55.135783 -2.424560 -23.199091 -0.138124 -0.001503 0.000462 -0.000682
100.934210 126.680649 130.547127 171.462960 -23.062342 -4.218925 1.108054 13.528882 2.198242 0.038406 1.131612 0.208882 0.155595 1.906281 0.254990 0.972662 12.208008 1.968906 -1.158262 19.377341 -4.293138 -0.255299 -5.148518 -4.322150 5.459365 6.239595 -4.412030 -14.337594 -26.962138 -14.631490 163.445095 -48.582635 -162.735907 -7.172619 -39.264645 -38.661418 -2.035417 8.619652 0.101560 28.540259 -22.985350 -1.226237 -169.616187 -38.452230 168.719465 10.100733 -20.385048 13.290745 6.704625 -55.721388 -8.284012 -131.635238 71.381965 -124.744079 1.533488 -4.120944 -15.086268 0.001089 -0.004188 0.000495 -19.425826 -59.987321 4.354522 60.710827 83.595379 55.109128 -2.421502 -23.203573 -0.152767 -0.001081 -0.000930 -0.000491
100.930633 126.682719 130.550448 171.485001 -23.098729 -4.236784 1.122889 13.550492 2.184358 0.043039 1.143433 0.201518 0.154652 1.905440 0.259731 0.969147 12.222231 1.978566 -1.280692 19.347920 -4.349095 -0.385201 -5.187903 -4.323338 5.586984 6.060059 -4.469222 -14.094850 -27.663330 -14.838871 161.182832 -49.354129 -161.065255 -6.027262 -40.381670 -40.215949 -2.214653 8.478454 0.052813 28.049261 -23.922279 -0.812404 -167.234064 -39.064653 167.758471 9.411136 -20.771255 14.138488 6.680822 -55.687715 -8.265718 -131.596936 71.383878 -124.714831 1.535448 -4.101092 -15.071124 0.000439 -0.007207 0.000199 -19.431020 -59.956332 4.348985 60.702402 83.588890 55.090380 -2.429412 -23.195232 -0.149215 -0.000733 -0.001810 -0.000333
100.926473 126.685749 130.553221 171.508455 -23.146504 -4.250438 1.119972 13.589609 2.179041 0.083039 1.120727 0.157826 0.127005 1.923822 0.289421 0.969761 12.244910 1.985084 -1.387093 19.323780 -4.406568 -0.488994 -5.208802 -4.339203 5.713506 5.870952 -4.526488 -13.671771 -28.361933 -15.070616 158.753142 -50.250572 -159.226870 -4.814763 -41.447302 -41.747175 -2.403232 8.334848 0.021102 27.413012 -24.849398 -0.407476 -164.648586 -39.833933 166.649667 8.710938 -21.123738 14.872136 6.668457 -55.638766 -8.261234 -131.581677 71.381013 -124.701839 1.537139 -4.093025 -15.057904 -0.000355 -0.007541 -0.000161 -19.424451 -59.912681 4.325873 60.695188 83.579931 55.070674 -2.437901 -23.186829 -0.138816 -0.001662 -0.001215 -0.000755
